<svg id="Layer_1" data-name="Layer 1" xmlns="http://www.w3.org/2000/svg" viewBox="0 0 156.48 139.06"><defs><style>.cls-1{font-size:42.21px;font-family:Righteous-Regular, Righteous;letter-spacing:0.1em;}.cls-1,.cls-3,.cls-4{fill:#fff;}.cls-2{letter-spacing:0.1em;}.cls-4{stroke:#fff;stroke-miterlimit:10;stroke-width:1.1px;}</style></defs><text class="cls-1" transform="translate(0 128.22)">c<tspan class="cls-2" x="26.1" y="0">onaf</tspan></text><ellipse class="cls-3" cx="65.13" cy="13.96" rx="15.3" ry="7.79"/><path class="cls-4" d="M96.6,126.3H94.84a3.7,3.7,0,0,1-3.7-3.81l1-32.17V52.77a3.7,3.7,0,0,1,3.7-3.7h0a3.7,3.7,0,0,1,3.69,3.74L99.12,89.6l1.17,32.87A3.7,3.7,0,0,1,96.6,126.3Z" transform="translate(-29.94 -35.95)"/><path class="cls-3" d="M93.29,62.18c-5.6,4.94-13.42,7.53-20.54,4.32-1-.46-1.91,1-.88,1.52,7.88,3.55,16.42.9,22.65-4.6.85-.75-.39-2-1.23-1.24Z" transform="translate(-29.94 -35.95)"/><path class="cls-3" d="M93.85,70a12.67,12.67,0,0,1-10.74,5.11c-1.13,0-1.13,1.7,0,1.75a14.33,14.33,0,0,0,12.25-6A.87.87,0,1,0,93.85,70Z" transform="translate(-29.94 -35.95)"/><path class="cls-3" d="M97.24,63.42c6.24,5.5,14.77,8.15,22.66,4.6,1-.47.13-2-.89-1.52-7.11,3.21-14.94.62-20.53-4.32-.84-.74-2.09.49-1.24,1.24Z" transform="translate(-29.94 -35.95)"/><path class="cls-3" d="M96.4,70.91a14.36,14.36,0,0,0,12.26,6c1.12,0,1.13-1.8,0-1.75A12.66,12.66,0,0,1,97.92,70a.9.9,0,0,0-1.2-.32.89.89,0,0,0-.32,1.2Z" transform="translate(-29.94 -35.95)"/><ellipse class="cls-3" cx="56.3" cy="19.02" rx="15.3" ry="7.79"/><ellipse class="cls-3" cx="75.45" cy="19.02" rx="15.3" ry="7.79"/><path class="cls-3" d="M76.9,52a45,45,0,0,1-7.82-1.36,1.35,1.35,0,1,0-.72,2.6,50.49,50.49,0,0,0,8.54,1.46,1.36,1.36,0,0,0,1.35-1.35A1.4,1.4,0,0,0,76.9,52Z" transform="translate(-29.94 -35.95)"/><path class="cls-3" d="M83.67,47.54a47.24,47.24,0,0,1-7.83-1.36,1.34,1.34,0,0,0-.71,2.59,50.49,50.49,0,0,0,8.54,1.46A1.34,1.34,0,0,0,85,48.88a1.37,1.37,0,0,0-1.34-1.34Z" transform="translate(-29.94 -35.95)"/><path class="cls-3" d="M90.44,43.46a47.06,47.06,0,0,1-7.83-1.36,1.34,1.34,0,1,0-.71,2.59,50.15,50.15,0,0,0,8.54,1.46,1.35,1.35,0,0,0,1.34-1.35,1.37,1.37,0,0,0-1.34-1.34Z" transform="translate(-29.94 -35.95)"/><path class="cls-3" d="M97.25,41c-1.39-.42-2.76-.89-4.1-1.42l-.43-.18s-.51-.21-.29-.11l-.88-.39c-.57-.26-1.14-.53-1.7-.81a1.38,1.38,0,0,0-1.85.49,1.36,1.36,0,0,0,.49,1.84,50.49,50.49,0,0,0,8,3.17A1.34,1.34,0,1,0,97.25,41Z" transform="translate(-29.94 -35.95)"/><path class="cls-3" d="M74.72,56.65a48,48,0,0,1-8.3.32,1.37,1.37,0,0,0-1.35,1.35,1.39,1.39,0,0,0,1.35,1.35,49,49,0,0,0,8.3-.32A1.38,1.38,0,0,0,76.06,58c0-.65-.59-1.44-1.34-1.35Z" transform="translate(-29.94 -35.95)"/><path class="cls-3" d="M114.73,54.66a50.49,50.49,0,0,0,8.54-1.46,1.35,1.35,0,1,0-.72-2.6A45,45,0,0,1,114.73,52a1.35,1.35,0,0,0,0,2.7Z" transform="translate(-29.94 -35.95)"/><path class="cls-3" d="M108,50.23a50.32,50.32,0,0,0,8.54-1.46,1.34,1.34,0,0,0-.71-2.59A47.24,47.24,0,0,1,108,47.54a1.35,1.35,0,0,0,0,2.69Z" transform="translate(-29.94 -35.95)"/><path class="cls-3" d="M101.2,46.15a50.49,50.49,0,0,0,8.54-1.46,1.36,1.36,0,0,0,.94-1.65A1.38,1.38,0,0,0,109,42.1a47.31,47.31,0,0,1-7.82,1.36,1.38,1.38,0,0,0-1.35,1.34,1.36,1.36,0,0,0,1.35,1.35Z" transform="translate(-29.94 -35.95)"/><path class="cls-3" d="M95.1,43.54a50.49,50.49,0,0,0,8-3.17,1.35,1.35,0,0,0,.49-1.84,1.39,1.39,0,0,0-1.85-.49l-1.64.79-.94.41-.28.11-.44.18c-1.34.53-2.71,1-4.1,1.42a1.34,1.34,0,1,0,.72,2.59Z" transform="translate(-29.94 -35.95)"/><path class="cls-3" d="M116.91,59.35a49,49,0,0,0,8.3.32,1.35,1.35,0,1,0,0-2.7,48,48,0,0,1-8.3-.32A1.36,1.36,0,0,0,115.57,58a1.39,1.39,0,0,0,1.34,1.35Z" transform="translate(-29.94 -35.95)"/><path class="cls-3" d="M97.06,46.68V37.15a1.25,1.25,0,0,0-2.49,0v9.53a1.25,1.25,0,0,0,2.49,0Z" transform="translate(-29.94 -35.95)"/></svg>