<svg id="e7f2d85f-db74-4bc1-a0d5-38627e0e7348" data-name="Layer 1" xmlns="http://www.w3.org/2000/svg" viewBox="0 0 77.01 76.85"><defs><style>.e3de81c1-aa95-44ce-9376-12f2a6a0ed8c{font-size:18.96px;font-family:Righteous-Regular, Righteous;letter-spacing:0.1em;}.ae9f28cd-5e0d-4c12-a2dd-c90f5125f8db,.b68e506c-617d-41a2-9e7b-8b1dbf1c3e22,.e3de81c1-aa95-44ce-9376-12f2a6a0ed8c{fill:#fff;}.b4004c14-9250-4b9b-aef5-88de92ac6ec0{letter-spacing:0.1em;}.b68e506c-617d-41a2-9e7b-8b1dbf1c3e22{stroke:#fff;stroke-miterlimit:10;stroke-width:1.1px;}</style></defs><text class="e3de81c1-aa95-44ce-9376-12f2a6a0ed8c" transform="translate(7.68 67.57)">c<tspan class="b4004c14-9250-4b9b-aef5-88de92ac6ec0" x="11.72" y="0">onaf</tspan></text><ellipse class="ae9f28cd-5e0d-4c12-a2dd-c90f5125f8db" cx="36.94" cy="16.25" rx="6.87" ry="3.5"/><path class="b68e506c-617d-41a2-9e7b-8b1dbf1c3e22" d="M37.62,50.56h-.79a1.67,1.67,0,0,1-1.66-1.71l.44-14.45V17.53a1.66,1.66,0,0,1,1.66-1.66h0a1.65,1.65,0,0,1,1.66,1.68l-.18,16.52q.27,7.4.53,14.77A1.66,1.66,0,0,1,37.62,50.56Z"/><path class="ae9f28cd-5e0d-4c12-a2dd-c90f5125f8db" d="M35.79,21.42a8.07,8.07,0,0,1-1,.81,10,10,0,0,1-2,1.07,7.14,7.14,0,0,1-5.61,0,.91.91,0,0,0-1.2.32.89.89,0,0,0,.31,1.2,8.92,8.92,0,0,0,6.84.24A12.49,12.49,0,0,0,37,22.66c.85-.75-.39-2-1.24-1.24Z"/><path class="ae9f28cd-5e0d-4c12-a2dd-c90f5125f8db" d="M36,25l0,.07c-.09.12,0,0,0-.06l-.15.19a5.36,5.36,0,0,1-.4.43l-.25.23L35,26c-.06.05-.07,0,0,0a6.89,6.89,0,0,1-.73.46,4.82,4.82,0,0,1-1.59.54l-.2,0c.13,0,.07,0,0,0s-.22,0-.34,0h-.56a.88.88,0,0,0,0,1.75,6.94,6.94,0,0,0,5.92-2.93.88.88,0,0,0-.31-1.2A.9.9,0,0,0,36,25Z"/><path class="ae9f28cd-5e0d-4c12-a2dd-c90f5125f8db" d="M37.57,22.66A12.61,12.61,0,0,0,41.49,25a8.91,8.91,0,0,0,6.84-.24.89.89,0,0,0,.32-1.2.9.9,0,0,0-1.2-.32,7.17,7.17,0,0,1-5.62,0,10.4,10.4,0,0,1-1.94-1.05L39.5,22l-.18-.13c.12.09,0,0,0,0l-.47-.39c-.84-.75-2.09.49-1.24,1.24Z"/><path class="ae9f28cd-5e0d-4c12-a2dd-c90f5125f8db" d="M37.12,25.92A6.94,6.94,0,0,0,43,28.85a.88.88,0,1,0,0-1.75h-.53l-.33,0h-.06l-.16,0a5.06,5.06,0,0,1-1.63-.55c-.24-.13-.46-.29-.69-.44s.15.13,0,0l-.14-.12-.26-.23c-.14-.14-.27-.28-.4-.43s-.11-.13-.16-.19.13.17.05.06L38.63,25a.87.87,0,1,0-1.51.88Z"/><ellipse class="ae9f28cd-5e0d-4c12-a2dd-c90f5125f8db" cx="32.97" cy="18.52" rx="6.87" ry="3.5"/><ellipse class="ae9f28cd-5e0d-4c12-a2dd-c90f5125f8db" cx="41.57" cy="18.52" rx="6.87" ry="3.5"/><path class="ae9f28cd-5e0d-4c12-a2dd-c90f5125f8db" d="M28.78,16.43q-.53,0-1.05-.12l.36.05a21.09,21.09,0,0,1-2.63-.52,1.35,1.35,0,0,0-.72,2.6,24,24,0,0,0,4,.68,1.33,1.33,0,0,0,1.34-1.35,1.34,1.34,0,0,0-.39-.95,1.52,1.52,0,0,0-.95-.39Z"/><path class="ae9f28cd-5e0d-4c12-a2dd-c90f5125f8db" d="M31.82,14.44l-1.05-.12.36,0a21.09,21.09,0,0,1-2.63-.52,1.35,1.35,0,1,0-.72,2.6,24,24,0,0,0,4,.68,1.35,1.35,0,0,0,1-2.3,1.52,1.52,0,0,0-1-.39Z"/><path class="ae9f28cd-5e0d-4c12-a2dd-c90f5125f8db" d="M34.85,12.61l-1-.12.36,0A21.09,21.09,0,0,1,31.54,12a1.35,1.35,0,0,0-.72,2.6,24.06,24.06,0,0,0,4,.68,1.35,1.35,0,0,0,1-2.3,1.53,1.53,0,0,0-1-.39Z"/><path class="ae9f28cd-5e0d-4c12-a2dd-c90f5125f8db" d="M38.11,11.51a22.33,22.33,0,0,1-2.25-.81l.32.13c-.41-.17-.82-.36-1.22-.55a1.37,1.37,0,0,0-1-.14,1.43,1.43,0,0,0-.81.62,1.36,1.36,0,0,0,.49,1.84,23,23,0,0,0,3.79,1.5,1.34,1.34,0,0,0,.71-2.59Z"/><path class="ae9f28cd-5e0d-4c12-a2dd-c90f5125f8db" d="M27.79,18.53a21,21,0,0,1-3.72.15A1.35,1.35,0,0,0,22.72,20a1.38,1.38,0,0,0,1.35,1.35,22,22,0,0,0,3.72-.14,1.51,1.51,0,0,0,1-.4,1.35,1.35,0,0,0,0-1.9,1.31,1.31,0,0,0-1-.4Z"/><path class="ae9f28cd-5e0d-4c12-a2dd-c90f5125f8db" d="M45.77,19.12a23.89,23.89,0,0,0,4-.68,1.35,1.35,0,0,0-.72-2.6,21.3,21.3,0,0,1-2.62.52l.35-.05c-.34.05-.69.09-1,.12a1.43,1.43,0,0,0-1,.39,1.37,1.37,0,0,0-.4.95,1.39,1.39,0,0,0,.4,1,1.36,1.36,0,0,0,1,.39Z"/><path class="ae9f28cd-5e0d-4c12-a2dd-c90f5125f8db" d="M42.73,17.13a23.89,23.89,0,0,0,4-.68,1.35,1.35,0,1,0-.72-2.6,21.3,21.3,0,0,1-2.62.52l.35,0c-.34,0-.69.09-1,.12a1.43,1.43,0,0,0-.95.39,1.34,1.34,0,0,0,0,1.91,1.31,1.31,0,0,0,.95.39Z"/><path class="ae9f28cd-5e0d-4c12-a2dd-c90f5125f8db" d="M39.69,15.3a23.89,23.89,0,0,0,4-.68A1.35,1.35,0,0,0,43,12a21.83,21.83,0,0,1-2.63.52l.35,0c-.34,0-.69.09-1,.12a1.45,1.45,0,0,0-.95.39,1.37,1.37,0,0,0-.4.95,1.35,1.35,0,0,0,.4,1,1.32,1.32,0,0,0,.95.4Z"/><path class="ae9f28cd-5e0d-4c12-a2dd-c90f5125f8db" d="M37.15,14.1a23.71,23.71,0,0,0,3.79-1.5,1.38,1.38,0,0,0,.62-.8,1.44,1.44,0,0,0-.14-1,1.37,1.37,0,0,0-1.84-.48c-.4.19-.81.38-1.22.55l.32-.13a21.48,21.48,0,0,1-2.25.81,1.34,1.34,0,1,0,.72,2.59Z"/><path class="ae9f28cd-5e0d-4c12-a2dd-c90f5125f8db" d="M46.75,21.23a22,22,0,0,0,3.72.14,1.47,1.47,0,0,0,1-.39,1.38,1.38,0,0,0,.39-1,1.36,1.36,0,0,0-1.35-1.34,21,21,0,0,1-3.72-.15,1.31,1.31,0,0,0-1,.4,1.33,1.33,0,0,0,0,1.9l.27.21a1.37,1.37,0,0,0,.68.19Z"/><path class="ae9f28cd-5e0d-4c12-a2dd-c90f5125f8db" d="M38.52,14.8V10.52a1.25,1.25,0,1,0-2.49,0V14.8A1.25,1.25,0,0,0,37.27,16a1.27,1.27,0,0,0,1.25-1.24Z"/></svg>