<svg id="efa4aa6a-2d97-4082-b82d-96528d36b13a" data-name="Layer 1" xmlns="http://www.w3.org/2000/svg" viewBox="0 0 357 444.1"><defs><style>.a36ee310-9fff-4caf-a630-081d702cb63c{fill:#e66eaa;}.a2e16ada-da6f-4cf1-8088-8522a6aae2a3,.a36ee310-9fff-4caf-a630-081d702cb63c,.acdc263b-632d-4f39-9a64-592788428351,.e80a52f0-3093-482e-9cd7-35808f3f78d7{fill-rule:evenodd;}.a2e16ada-da6f-4cf1-8088-8522a6aae2a3{fill:#86d4ef;}.b7723880-fc1c-4f89-bc5b-b6e5345bdd8a{fill:#4fb848;}.acdc263b-632d-4f39-9a64-592788428351{fill:none;stroke:#4a4a4a;stroke-miterlimit:10;stroke-width:2.84px;}.e80a52f0-3093-482e-9cd7-35808f3f78d7{fill:#3cbfef;}</style></defs><path class="a36ee310-9fff-4caf-a630-081d702cb63c" d="M156.54,321.42a17.47,17.47,0,0,0,2.59-6c1.1-4.67,1.3-4.92,1.3-7.77,0-1.27.43-1.35,2.33-3.62,3.09-3.7,3.36-4.92,5.44-6.48a5.11,5.11,0,0,1,3.36-.51,8.23,8.23,0,0,1,1.56.51c2.55.89,3.1.56,4.66,1.3,1.3.62.9.85,2.33,1.55,1.87.92,3.15.83,3.36,1.56.13.44-.2.92-.77,1.55-1.87,2.05-3.37,2.45-4.41,3.37-1.67,1.46-.51,2.82-1.81,7.76-.88,3.37-1.62,3.53-3.36,9.07a22.08,22.08,0,0,0-1,3.88c-.29,2.63,1.29,3.63.78,8-.49,4.14-.13,4.84-.52,5.18a3.3,3.3,0,0,1-4.14-.26c-1-1.08-.2-2-1.56-2.85s-2.44-1.55-5.19-3.08a1.27,1.27,0,0,0-1.06-.07c-6.7,2.56-13.18,5.21-19.9,7.81a19.4,19.4,0,0,1-3.89,0c-.79,0-1.14-1.4-1-2.33.18-1.58,2.06-1.85,2.33-3.62.12-.78-.57-1.05-.26-1.82.52-1.29,1.55-2.33,2.59-4.66A8.7,8.7,0,0,1,142,325c1.19-1.58,2.19-2.49,3.63-2.59a64.62,64.62,0,0,1,10.1,0C156,322.22,156.24,321.86,156.54,321.42Z"/><path class="a2e16ada-da6f-4cf1-8088-8522a6aae2a3" d="M72.26,231.59a7.67,7.67,0,0,0,1-1.8c.66-1.62.18-2.1.77-3.85.46-1.36.74-1.08,1.54-3.09a2.94,2.94,0,0,1,.77-1.28,2.87,2.87,0,0,1,2.06-.52c.76-.27,1.81-.64,3.09-1,3-.92,3.74-.91,4.11-.52s0,1.19.51,1.8,1.27.18,1.8.77a2.46,2.46,0,0,1,.26,2.06c-.22.91-.67,1-1,2.05a12.16,12.16,0,0,0-.26,1.8c-.33,1.88-.92,2.32-.77,3.6.08.62.23.62.26,1,.18,2.19-3.85,5.29-7.71,5.14a6,6,0,0,1-3.34-1,5.67,5.67,0,0,1-1.8-2,1.43,1.43,0,0,1-2.32-1.29A2.41,2.41,0,0,1,72.26,231.59Z"/><path class="a36ee310-9fff-4caf-a630-081d702cb63c" d="M57.28,211.85c0-.75.11-.61,0-1-.24-.76.87-1.12,1-1.85,0-.39.22-.91.43-.92s-.72-2.62-.39-1.23c1,0,1,1,2,1-.06-.5,1.91.78,1.85.28l.46-.71-.12-1.07,1.4-1.68a1.35,1.35,0,0,1-.12-1.07c.21-.58.74-.61.93-1.2s-.17-.81.12-1.31a1.49,1.49,0,0,1,.48-.49,4,4,0,0,1,2.89-.33,2.68,2.68,0,0,1,1.14.75l.41-1.14,2.62-.29.84.34,0,.43,1.07.1a.92.92,0,0,0,.36.83c.3.2.63.11.83.34s.06.18.08.64c0,0,0,.3.12,1.08h0l-.48.49c-.23.24-.32.84.26,2.36l.89.77.17,1.51a10.63,10.63,0,0,0-1.84,2.59A5.78,5.78,0,0,0,74,214a1.88,1.88,0,0,0,.72,1.66,2.51,2.51,0,0,0,1.62.26,2.53,2.53,0,0,1-2.45,1.8,2.08,2.08,0,0,1-1.41-.72l-.46.71-.54-.16-.34-.61a2,2,0,0,0-1.38-.5c-.77.06-1.07.69-1.53.6-.64-.12.89-2,.1-2.17-.32-.07-.62-1-1-1-1-.08-2,.32-3.19-.07-.35-.12-.2.06-1.86,0-.77,0-1.27-.08-1.57.18a.68.68,0,0,0-.22.46c-.1.66-.2,1.33-.31,2-.22,0-1.33.27-1.88-.22a1.7,1.7,0,0,1-.36-.83c-.2-.74-1.74-1.1-1.61-1.5A5.3,5.3,0,0,1,57.28,211.85Z"/><path class="b7723880-fc1c-4f89-bc5b-b6e5345bdd8a" d="M70.93,256.85s7.33-7.13,7.25-12.47a7.42,7.42,0,1,0-14.84.2C63.41,249.92,70.93,256.85,70.93,256.85Zm-.12-8.66a3.71,3.71,0,1,1,3.66-3.76A3.71,3.71,0,0,1,70.81,248.19Z"/><path class="b7723880-fc1c-4f89-bc5b-b6e5345bdd8a" d="M69,314.25s8.16-6.85,8.49-12.4A7.73,7.73,0,0,0,62,300.92C61.68,306.47,69,314.25,69,314.25Zm.54-9a3.87,3.87,0,1,1,4.09-3.63A3.87,3.87,0,0,1,69.5,305.25Z"/><g id="a0ef90e0-903f-4baf-bdeb-94040c96f3b8" data-name="Region Antofagasta"><g id="f8bac4a9-e05b-4353-9627-7fb70659f8d5" data-name="Provincia El Loa"><path id="ae57363d-cd8a-4f63-a2ff-e1836252e6a7" data-name="Calama" class="acdc263b-632d-4f39-9a64-592788428351" d="M199.46,33.85l-1.71.3-2.3,8.92L173.23,56.4,170,57.48v.05l-25.42,7.84L128.48,82.8a3,3,0,0,1-1.42-1.72c-.64-.74-.65-1.73-1.17-2.52a26.62,26.62,0,0,1-2.29-3.2,24.83,24.83,0,0,1-1.53-2.88c-.55-.82-.93-2.07-1.9-2.44-1.3-.28-3.25-.59-4.32-1.62a2.9,2.9,0,0,0-2.27-.74c-1.11,1.09-2.17.93-3.63.53a17.69,17.69,0,0,1-2-.06l-.26-.05a20.73,20.73,0,0,1-4-1.17,26.58,26.58,0,0,0-4.13.44c-1.91,1.14-1.86.37-3.62-.17a1.53,1.53,0,0,0-1.44.83c-.16.53-.94,1.44-2.85,2.16-1.1,1.15-1.45,2.63-.23,4.74l-1.28,1.91c-.48,2.37-.09,5-4.1,6.44,0,1.94-.34,4.29,1,4.93L85.78,91c2,6.92,0,9.26-3.44,10.12.87,1.4,4.2,2.37.84,4.57-.22,2.74-1.68,5.71.22,8.06a12,12,0,0,0-2.86,7.3c.58,3.09-.22,6.84-.49,10.33-.34,1.44-1.27,2.59.12,4.93-2.1,2.85-1.52,5.44.58,7.88-1.08,2.05-1.19,4.19-2.24,4-1.21,1.75-.68,2.64,0,3.49,1,1.12.66,2.25-.63,3.35.15.31.63,6.79-1.63,9.11-1.75,3.38.72,5,1.27,6.55-.63,3.12-2.65,12.55-13,15.37-3.24-.36-2.5-3.2-2.67-5.18-2.75.12-5.77,4.81-5,7,2,2.1,1.49,4.41.19,6.8a7.82,7.82,0,0,0-.58,3.53c0,.91.78,2.41.76,3.28a27.5,27.5,0,0,1,.23,3.54c-.59,3.26-.48,9.05-2.25,8.7-.54,2,.58,1.24,2.39,2.17s3.26,1.18,4.12-.49c.14-.27.25-3.85,1.38-3s2.91.27,4.05,1.44c3.68,3.87,3.39,7.14,3.12,12.25-.7,1.79-1.91,1.9-2.19,3.83a25,25,0,0,1-3.65,5.63c-.53.52-1.72,2.09-1.38,3.52.29,1.24-1.64,1.9-.58,3,.72.73,3.11,1,1.86,2.22-1.68,7.77.26,7.81.44,11.46-.23.45-1.58,2.89-1.43,3.52.24,2.13-1.07,4.4-1.42,6.51-.59,3.17-2,5.6-3.37,8.65.34,1.06,2,3.16,1.55,4.67-.78,2.7-1.4,5.4-2,8.12-.88.6-.47,1.64.15,2.91,1.07,2.19,2.75,5.06-.81,7.69A70.08,70.08,0,0,0,60.55,312a21,21,0,0,0,3.43,9.3c1.06,2.68-.58,4.39-1.73,6.25a15.44,15.44,0,0,0,2.15,3.56c1.32,1.89,2.91,4.19,2.38,6.56-.46,1.74-1.27,2.91-1.71,4.59-.51,1.92.53,3.25-.33,4.92a3.73,3.73,0,0,1-2.22,2.12c-2,1.32-2.18,3.36-3.33,5.42-.9,1.87-5.41,2.23-5.21,5.39-.88,2.43-.82,4.9-2.54,6.78-1.38,1.77-4.57,3.33-2.54,6,3.07,4.51-2.64,2.6-2.21,5.12-1.48.64-2.43,2.59.46,6.81,1.33,2.24,2.83,3.57,4.27,5.51a9.31,9.31,0,0,1-.36,7.6c.43,0,.59.28.8.55,2,1.69,3.42-1.91,4.72-5.09,4.92,1.1,7.14-1.2,9.26-3.69,2.56-.9,6.86,2.57,6.9-4.84,1.66.58,4.64-1,4.31,2.78l4.06.85,7.33,1.21,3-2.15c1.15-1.24,4.05-1.58,6.56-2.12.63,1,2.07,2.34,4.87,4.13l1.37-2.4c1.94,1.9,6,.72,9.26.65,1.06,2.33,8.61.44,14.42,2.37l-.53-3.59c1.86,1,2.22-.15,2-2.12,1.95.44,3.95.94,3.81-.76,1.09-.32,2.19-.85,3.25,1.65l8.22-3.17c8.39.34,9.88-2.15,11.2-4.74,3.07-1.51,3.33-3.07,2.79-4.62,3.91.07.78-2.58-.75-4.62.41-2.09-2.74-1-2.94-4.69l4.1-2.37c2.79-2.36,3.71-5,1.44-8.17,2.16-.7,1.19-2.07-.23-3.54l3.27-.23c1.07,1.57,2.91,1.66,5.46.34l5.19.06c3.67,3.33,7.46-2.76,11.2-5.32,2.44-.47,6.17-.25,5.84-1.81a5.71,5.71,0,0,1,3.16-5.38c1.26-1.77-2.22-4.69,1.22-5.31,1.31-2.67,3.87-1.45,6-.64,2.6-.36,2.88-4.33,1.14-6-1.22-2.27-3-4.24-3.45-6.85-1.32-2.07-1.58-4.72-4.14-5.73-2.41-1.07-2.34-4.14-4.13-5.82-1.77-1.92,2.23-3,2.61-5.12,1.61-1.8,1.1-5.37,2.5-7.08,2.83,1,3.59-1.94,4.12-4.07.74-1.82.89-4.66,3.5-4.61,1.88-.52,4.77.84,5.31-1.86.93-1,1.42-2.39,2.41-3.37s10.12-3.87,10.12-3.87l51.7-19.91,23.77-75.12-11.3-12.66-24.28,5.7-16.94-2c-1.24-2.36-6.83-1.35-4.5-5.42a3.9,3.9,0,0,0,0-3.33,5.87,5.87,0,0,1-.51-3.52,10,10,0,0,0-.28-4.53c1-2.24,5.05-6.09.94-7.55-3.56-.25-1.67-5.94-3.33-9.62a4.18,4.18,0,0,1-.4-.63c.23.16.19-.45-.3-.63h0c0-.09,0-.15-.08-.27s0,0,0,0c.43-.32,0-.39,0-.14-8.64-7.26-4.37-6.82.27-7.29.77-3.14-2.73-5.65-1.37-8.87,1.89-1.93-.71-3-1-4.22-.53-2.06-2.6-2.81-3-3.13a17.84,17.84,0,0,0-3.68-3.13l-.52-1L227.09,95l-2.6-3.17L223.67,89l-4.49-5.65.27-22.77-7-13.73-8.75-12.73Z"/></g></g><path class="e80a52f0-3093-482e-9cd7-35808f3f78d7" d="M261.38,183.81l47.35-11.27c2.65-.63,8.66-1.68,12.26,1.53a20,20,0,0,1,2.89,3.65,43.67,43.67,0,0,1,3.66,6.39q1.66,3.13,3.35,6.25a8,8,0,0,0-.61,3.27c.05,1.75.67,2.45.61,3.81a6.33,6.33,0,0,1-2,3.8c-1.41,1.68-2.66,4.85-1.83,11.42a121.27,121.27,0,0,0-4.42,12.87,122.84,122.84,0,0,0-4.56,32.58L316,261.46a10,10,0,0,0-7.85.3,6.48,6.48,0,0,0-3.34,8.22l-7-1.37c-1.08-3.08-2.48-4.58-4-5-2.41-.68-4.22,1.48-6.09.45-.37-.19-.93-.62-2.29-5s-1.12-5-2.13-6.32c-.73-.94-2-1.64-4.57-3-3.82-2.1-5.35-2.31-6-4a4.4,4.4,0,0,1,0-3c.68-1.61,2.2-1.65,2.51-3a3.85,3.85,0,0,0-1-2.89c-.58-.84-1.19-1.26-3.5-2.9h0l-11.26-12.25a4.45,4.45,0,0,1-3.66-.15c-.83-.49-1.35-1.5-2.36-3.51-.6-1.19-.64-1.45-1.37-3-1.41-3.07-1.74-3.17-1.83-3.88-.16-1.27.61-3.23,5.1-6.09q1.53-5,3-9.9Q259.86,189.41,261.38,183.81Z"/></svg>